<?xml version="1.0" standalone="no"?>
<!DOCTYPE svg PUBLIC "-//W3C//DTD SVG 20010904//EN"
 "http://www.w3.org/TR/2001/REC-SVG-20010904/DTD/svg10.dtd">
<svg version="1.0" xmlns="http://www.w3.org/2000/svg"
 width="1200.000000pt" height="1200.000000pt" viewBox="0 0 1200.000000 1200.000000"
 preserveAspectRatio="xMidYMid meet">

<g transform="translate(0.000000,1200.000000) scale(0.100000,-0.100000)"
fill="#000000" stroke="none">
<path d="M5862 11990 c-82 -15 -200 -65 -284 -120 -41 -27 -138 -108 -214
-179 -77 -71 -1262 -1253 -2635 -2628 -1717 -1718 -2515 -2524 -2557 -2580
-71 -96 -125 -202 -149 -293 -24 -89 -24 -291 0 -380 61 -229 235 -427 443
-506 132 -50 183 -54 625 -54 l409 0 0 -2285 c0 -2501 -3 -2356 57 -2500 74
-178 232 -333 418 -412 126 -54 111 -53 1365 -53 l1160 0 0 1910 c0 2089 -3
1983 57 2124 75 179 230 334 408 409 135 57 142 57 1035 57 893 0 900 0 1035
-57 180 -76 336 -233 409 -413 59 -144 56 -38 56 -2120 l0 -1910 1160 0 c1254
0 1239 -1 1365 53 184 78 348 238 415 407 59 146 54 -57 57 2473 l3 2317 409
0 c435 0 494 5 615 51 100 37 177 88 262 174 66 66 90 99 128 176 65 134 81
199 81 349 0 144 -16 215 -71 328 -68 140 -143 222 -791 872 l-633 636 0 1367
c0 1488 2 1435 -56 1577 -73 181 -242 349 -420 419 -120 47 -176 51 -649 51
-473 0 -529 -4 -649 -51 -176 -69 -343 -235 -419 -415 -47 -111 -57 -192 -57
-456 l0 -242 -832 830 c-458 457 -868 858 -911 892 -165 130 -297 182 -477
188 -63 1 -139 -1 -168 -6z"/>
</g>
</svg>
