<svg version="1.1" id="Layer_1" xmlns="http://www.w3.org/2000/svg" xmlns:xlink="http://www.w3.org/1999/xlink" x="0px" y="0px"
	 width="100%" viewBox="0 0 512 512" enable-background="new 0 0 512 512" xml:space="preserve">
<path fill="#000000" opacity="1.000000" stroke="none" 
	d="
M513.000000,200.000000 
	C513.000000,304.641235 513.000000,408.782471 513.000000,512.961853 
	C342.400421,512.961853 171.800827,512.961853 1.100622,512.961853 
	C1.100622,342.442139 1.100622,171.884171 1.100622,1.163107 
	C171.666534,1.163107 342.333252,1.163107 513.000000,1.163107 
	C513.000000,67.199127 513.000000,133.349564 513.000000,200.000000 
M143.156158,383.801727 
	C143.212875,385.548645 143.269592,387.295593 143.160629,389.950623 
	C143.160629,392.898529 143.160629,395.846466 143.160629,399.340088 
	C131.500900,399.340088 120.324936,399.340088 109.148972,399.340088 
	C108.918579,399.735199 108.688187,400.130280 108.457787,400.525391 
	C114.396271,407.275696 120.246765,414.106018 126.295242,420.756256 
	C134.004532,429.232513 141.227966,438.308380 149.836182,445.769775 
	C160.840958,455.308380 172.589737,464.158417 184.825851,472.052826 
	C194.590775,478.352905 205.504501,482.903931 216.026108,487.987427 
	C222.071655,490.908386 228.170074,493.963715 234.572464,495.840302 
	C242.530731,498.172882 250.895309,499.080383 258.958710,501.104156 
	C266.799774,503.072113 274.677887,503.806091 282.718689,504.542664 
	C302.200104,506.327393 321.060486,503.592834 339.647583,498.648132 
	C355.671692,494.385284 370.763306,487.614624 384.835724,478.691101 
	C400.725616,468.615112 414.541046,456.256622 426.676483,441.886444 
	C439.306274,426.930817 449.129944,410.173035 456.694000,392.345673 
	C466.455811,369.338654 473.384216,345.317505 475.958832,320.311920 
	C477.922119,301.243561 479.813812,282.144104 480.824280,263.010223 
	C481.442139,251.309952 480.570312,239.505737 479.938049,227.771332 
	C479.205353,214.172562 478.494476,200.539871 476.868500,187.030899 
	C475.128143,172.571518 472.986115,158.095566 469.862152,143.881180 
	C463.399780,114.476738 452.882172,86.648903 434.999969,62.033745 
	C422.736511,45.152855 407.878296,31.292164 389.002350,21.970491 
	C377.965271,16.519962 366.539581,12.596395 354.328644,10.574505 
	C342.027191,8.537623 329.665802,7.729624 317.602509,10.386640 
	C304.956329,13.172040 292.561188,17.276627 280.259979,21.410677 
	C256.112610,29.525856 232.254974,38.524288 208.003265,46.302338 
	C179.511703,55.440193 150.081085,59.444778 120.173363,60.033001 
	C114.418427,60.146191 108.536575,60.017342 102.944824,61.146667 
	C78.192444,66.145744 60.594193,80.622253 48.991615,102.839973 
	C40.115005,119.837753 36.702507,138.310486 33.132843,157.000565 
	C21.722731,158.991409 14.293458,168.999985 14.794675,180.949570 
	C15.194674,190.486008 25.882854,201.167465 33.995888,200.926422 
	C35.001762,210.996521 35.195324,221.231140 37.194019,231.100174 
	C40.638760,248.109375 44.461391,265.116425 49.479187,281.715149 
	C56.865574,306.149109 66.671211,329.713043 78.718124,352.277893 
	C80.899895,356.364532 83.319389,360.324249 86.152954,365.253876 
	C88.352135,355.615448 90.051552,352.856781 97.899261,346.173706 
	C103.134796,344.872253 108.307655,342.998993 113.621994,342.416504 
	C120.020103,341.715210 126.538475,342.110992 133.899673,342.224152 
	C136.823151,342.224152 139.746628,342.224152 142.735962,342.224152 
	C142.735962,349.673737 142.735962,356.620819 142.735962,363.994843 
	C139.219986,363.994843 136.109573,363.994843 132.084778,363.773071 
	C128.105835,363.763306 124.125854,363.690247 120.148140,363.755402 
	C106.863922,363.972900 107.518242,361.340424 107.868813,376.768799 
	C107.874977,377.040375 108.157341,377.305634 108.403725,377.736176 
	C118.219131,377.736176 128.127731,377.736176 138.898727,377.906189 
	C140.296753,377.995361 141.694778,378.084503 142.994202,378.167389 
	C143.140747,380.041199 143.254517,381.496063 143.156158,383.801727 
z"/>
<path fill="#EFEFEF" opacity="1.000000" stroke="none" 
	d="
M97.190979,346.417175 
	C90.051552,352.856781 88.352135,355.615448 86.152954,365.253876 
	C83.319389,360.324249 80.899895,356.364532 78.718124,352.277893 
	C66.671211,329.713043 56.865574,306.149109 49.479187,281.715149 
	C44.461391,265.116425 40.638760,248.109375 37.194019,231.100174 
	C35.195324,221.231140 35.001762,210.996521 34.409729,200.468506 
	C48.531609,201.788559 62.123768,187.468948 56.754803,172.021072 
	C53.073753,161.429749 44.499733,157.479736 33.908558,156.978073 
	C36.702507,138.310486 40.115005,119.837753 48.991615,102.839973 
	C60.594193,80.622253 78.192444,66.145744 102.944824,61.146667 
	C108.536575,60.017342 114.418427,60.146191 120.173363,60.033001 
	C150.081085,59.444778 179.511703,55.440193 208.003265,46.302338 
	C232.254974,38.524288 256.112610,29.525856 280.259979,21.410677 
	C292.561188,17.276627 304.956329,13.172040 317.602509,10.386640 
	C329.665802,7.729624 342.027191,8.537623 354.328644,10.574505 
	C366.539581,12.596395 377.965271,16.519962 389.002350,21.970491 
	C407.878296,31.292164 422.736511,45.152855 434.999969,62.033745 
	C452.882172,86.648903 463.399780,114.476738 469.862152,143.881180 
	C472.986115,158.095566 475.128143,172.571518 476.868500,187.030899 
	C478.494476,200.539871 479.205353,214.172562 479.938049,227.771332 
	C480.570312,239.505737 481.442139,251.309952 480.824280,263.010223 
	C479.813812,282.144104 477.922119,301.243561 475.958832,320.311920 
	C473.384216,345.317505 466.455811,369.338654 456.694000,392.345673 
	C449.129944,410.173035 439.306274,426.930817 426.676483,441.886444 
	C414.541046,456.256622 400.725616,468.615112 384.835724,478.691101 
	C370.763306,487.614624 355.671692,494.385284 339.647583,498.648132 
	C321.060486,503.592834 302.200104,506.327393 282.718689,504.542664 
	C274.677887,503.806091 266.799774,503.072113 258.958710,501.104156 
	C250.895309,499.080383 242.530731,498.172882 234.572464,495.840302 
	C228.170074,493.963715 222.071655,490.908386 216.026108,487.987427 
	C205.504501,482.903931 194.590775,478.352905 184.825851,472.052826 
	C172.589737,464.158417 160.840958,455.308380 149.836182,445.769775 
	C141.227966,438.308380 134.004532,429.232513 126.295242,420.756256 
	C120.246765,414.106018 114.396271,407.275696 108.457787,400.525391 
	C108.688187,400.130280 108.918579,399.735199 109.148972,399.340088 
	C120.324936,399.340088 131.500900,399.340088 143.160629,399.340088 
	C143.160629,395.846466 143.160629,392.898529 143.675171,389.489868 
	C147.453568,388.686462 150.717422,388.343842 154.369019,387.999939 
	C155.532211,387.999695 156.307678,388.000671 157.215622,388.452393 
	C157.370865,393.550323 157.234985,398.204803 157.446335,402.843414 
	C158.064026,416.399384 166.855637,426.091553 180.142822,427.488708 
	C184.547775,427.951874 189.132141,427.793304 193.518478,427.140076 
	C205.332748,425.380707 213.651505,415.845612 214.176941,403.907867 
	C214.395493,398.942627 214.404556,393.968231 214.940399,388.996735 
	C219.737778,388.994812 224.103622,388.994171 228.521271,389.459473 
	C228.645340,395.069885 228.450134,400.234985 228.845169,405.354584 
	C229.687561,416.271759 237.989227,425.448822 248.857727,427.032440 
	C253.879959,427.764252 259.160034,427.842743 264.189117,427.187775 
	C276.087097,425.638153 284.481659,416.343140 285.243439,404.421844 
	C285.571136,399.293884 285.448517,394.137177 285.960754,388.993347 
	C290.757294,388.994568 295.123566,388.995941 299.600159,389.454407 
	C299.710510,402.359833 299.710510,414.808197 299.710510,427.415802 
	C307.079620,427.415802 313.949646,427.415802 321.153870,427.415802 
	C321.153870,416.683838 321.153870,406.293671 321.153870,394.485779 
	C326.309937,403.775604 330.769012,411.841187 335.259216,419.889404 
	C338.601349,425.879761 343.636871,428.889862 348.365234,427.783112 
	C352.974060,426.704285 356.537720,420.934692 356.611938,414.438690 
	C356.708801,405.959808 356.808655,397.480957 357.374786,389.001465 
	C362.106750,388.999329 366.371124,388.997864 370.731689,389.456390 
	C370.834808,398.565277 370.781921,407.214691 370.866791,415.862793 
	C370.941193,423.444244 374.939362,427.537872 382.549530,427.725830 
	C388.699829,427.877777 394.857208,427.805176 401.010742,427.751617 
	C417.320282,427.609650 427.656067,417.187653 427.750092,400.758667 
	C427.807220,390.779480 427.551208,380.794067 427.819641,370.821777 
	C428.088837,360.820587 424.829498,352.627289 416.883301,345.959167 
	C416.949432,331.422852 416.972595,317.381989 417.448669,303.247955 
	C421.028809,303.154755 424.156006,303.154755 427.513733,303.154755 
	C427.615570,301.582306 427.752380,300.454163 427.752594,299.326019 
	C427.762573,241.840164 427.850433,184.354095 427.718048,126.868561 
	C427.662384,102.692131 410.643250,86.260918 386.020050,86.251244 
	C300.041199,86.217453 214.062363,86.221977 128.083588,86.289764 
	C124.117897,86.292892 120.043777,86.600044 116.205948,87.531281 
	C97.779877,92.002251 86.265205,107.529564 86.251801,127.757149 
	C86.214149,184.576477 86.238327,241.395828 86.238129,298.215179 
	C86.238121,299.678833 86.238129,301.142487 86.238129,303.331268 
	C90.082146,303.331268 93.526176,303.331268 96.968758,303.779205 
	C97.041870,318.290497 97.116425,332.353821 97.190979,346.417175 
z"/>
<path fill="#F3F3F1" opacity="1.000000" stroke="none" 
	d="
M157.083145,388.001648 
	C156.307678,388.000671 155.532211,387.999695 154.135178,387.742432 
	C150.131836,385.974396 146.750061,384.462646 143.368301,382.950897 
	C143.254517,381.496063 143.140747,380.041199 142.994202,378.167389 
	C141.694778,378.084503 140.296753,377.995361 138.415955,377.479370 
	C136.288498,372.700012 134.643829,368.347412 132.999161,363.994843 
	C136.109573,363.994843 139.219986,363.994843 142.735962,363.994843 
	C142.735962,356.620819 142.735962,349.673737 142.735962,342.224152 
	C139.746628,342.224152 136.823151,342.224152 133.437439,341.657501 
	C132.995438,279.900574 133.015656,218.710281 133.499710,157.477020 
	C224.573730,157.434036 315.183899,157.434036 406.233093,157.434036 
	C406.233093,206.124786 406.233093,254.377151 406.233093,303.341156 
	C410.107361,303.341156 413.551575,303.341156 416.995758,303.341156 
	C416.972595,317.381989 416.949432,331.422852 416.539490,345.827271 
	C413.238922,344.825958 410.392303,342.493683 407.398224,342.285889 
	C399.830292,341.760712 392.190735,342.384338 384.590088,342.176025 
	C378.660065,342.013519 374.074280,344.016937 370.460022,348.952515 
	C370.339600,349.970276 370.556854,351.001373 370.815125,352.497406 
	C370.782623,364.973663 370.709076,376.985016 370.635529,388.996368 
	C366.371124,388.997864 362.106750,388.999329 357.247040,388.547729 
	C356.651733,372.979523 356.651733,357.864471 356.651733,342.572998 
	C349.199890,342.572998 342.326233,342.572998 335.132385,342.572998 
	C335.132385,350.212006 335.252960,357.522003 335.030609,364.821594 
	C334.986176,366.280701 333.633514,367.699951 332.884064,369.137573 
	C331.762848,368.109253 330.296295,367.277618 329.579498,366.018982 
	C326.254456,360.180359 323.131592,354.226410 319.947876,348.307556 
	C317.870270,344.445129 314.414215,343.158417 310.309998,342.106506 
	C305.022095,340.751190 303.108154,345.775970 299.489807,346.767365 
	C299.489807,360.891418 299.489807,374.944366 299.489807,388.997314 
	C295.123566,388.995941 290.757294,388.994568 285.911865,388.527924 
	C285.432678,372.888672 285.432678,357.714630 285.432678,342.527191 
	C277.875549,342.527191 271.151276,342.527191 263.869965,342.527191 
	C263.869965,358.205536 263.869965,373.601593 263.414490,388.998352 
	C258.682709,388.998566 254.406387,388.998138 250.046234,388.535797 
	C249.962433,372.888733 249.962433,357.703552 249.962433,342.515442 
	C242.491684,342.515442 235.755905,342.515442 228.469482,342.515442 
	C228.469482,358.188263 228.469482,373.590881 228.469482,388.993530 
	C224.103622,388.994171 219.737778,388.994812 214.831390,388.539490 
	C214.273331,381.102081 214.376587,374.117828 214.212204,367.139862 
	C213.902527,353.994171 205.208481,344.242645 192.180542,342.526947 
	C169.047836,339.480469 155.977158,352.097290 157.326752,372.585968 
	C157.663422,377.697021 157.186249,382.861664 157.083145,388.001648 
M171.412735,313.931061 
	C173.829636,313.931061 176.246536,313.931061 179.210663,313.931061 
	C179.210663,302.908417 179.210663,292.624786 179.210663,281.179321 
	C184.364990,290.460785 188.858994,298.603638 193.403091,306.718414 
	C196.549713,312.337677 201.065369,314.824036 205.869446,313.686035 
	C211.334793,312.391388 214.237198,308.186768 214.246445,301.261780 
	C214.277191,278.267548 214.261459,255.273209 214.247971,232.278915 
	C214.247314,231.158310 214.098663,230.037781 214.006866,228.747711 
	C206.965912,228.747711 200.206757,228.747711 192.876877,228.747711 
	C192.876877,239.344742 192.876877,249.829987 192.876877,261.790497 
	C187.372147,251.865204 182.718140,243.275452 177.869003,234.797318 
	C174.388489,228.712051 167.921646,226.826721 162.583328,230.125595 
	C158.213776,232.825790 157.360199,237.070328 157.371078,241.810211 
	C157.423065,264.471130 157.389389,287.132263 157.407547,309.793304 
	C157.408585,311.082306 157.599396,312.371185 157.723419,313.931061 
	C162.149033,313.931061 166.296127,313.931061 171.412735,313.931061 
M278.899597,236.631546 
	C274.975220,234.236237 271.287048,230.496353 267.071930,229.755768 
	C260.487518,228.598846 253.343430,228.446609 246.805237,229.737122 
	C237.828812,231.508911 230.388275,237.885712 229.554260,246.759354 
	C228.096512,262.269379 228.658951,278.020020 229.169662,293.643860 
	C229.443329,302.015961 237.756668,311.211426 245.766495,312.589752 
	C252.167282,313.691193 258.803619,313.582245 265.339233,313.651703 
	C267.488647,313.674561 270.050201,313.123749 271.737946,311.894409 
	C279.906372,305.944427 285.790527,298.668915 285.479004,287.669495 
	C285.167877,276.684479 285.364441,265.683533 285.426056,254.690063 
	C285.462921,248.114960 283.690826,242.222595 278.899597,236.631546 
M313.447327,249.953232 
	C314.720276,250.048553 315.993225,250.143860 317.655121,250.268311 
	C317.655121,271.653046 317.655121,292.708710 317.655121,313.546692 
	C324.968292,313.546692 331.858826,313.546692 338.998840,313.546692 
	C338.998840,292.224182 338.998840,271.306946 338.998840,249.901794 
	C344.819977,249.901794 350.382812,249.901794 356.277161,249.901794 
	C356.277161,242.692551 356.277161,235.972061 356.277161,228.725601 
	C337.380859,228.725601 318.721222,228.725601 299.928802,228.725601 
	C299.928802,235.958328 299.928802,242.712891 299.928802,249.953217 
	C304.227509,249.953217 308.344421,249.953217 313.447327,249.953232 
z"/>
<path fill="#D1D6DC" opacity="1.000000" stroke="none" 
	d="
M133.035858,157.520004 
	C133.015656,218.710281 132.995438,279.900574 132.989990,341.561340 
	C126.538475,342.110992 120.020103,341.715210 113.621994,342.416504 
	C108.307655,342.998993 103.134796,344.872253 97.545120,346.295441 
	C97.116425,332.353821 97.041870,318.290497 97.423409,303.687775 
	C101.006187,303.148407 104.132874,303.148407 107.714508,303.148407 
	C107.714508,254.424561 107.714508,206.177185 107.714508,157.520004 
	C116.456863,157.520004 124.746368,157.520004 133.035858,157.520004 
z"/>
<path fill="#A5B0C2" opacity="1.000000" stroke="none" 
	d="
M33.520699,156.989319 
	C44.499733,157.479736 53.073753,161.429749 56.754803,172.021072 
	C62.123768,187.468948 48.531609,201.788559 34.378922,200.015549 
	C25.882854,201.167465 15.194674,190.486008 14.794675,180.949570 
	C14.293458,168.999985 21.722731,158.991409 33.520699,156.989319 
M32.151543,182.196732 
	C33.228039,185.394409 35.287224,186.691711 38.624950,185.576035 
	C42.308239,184.344849 44.628120,180.362625 43.384567,176.997955 
	C42.032734,173.340317 39.437527,171.243866 35.360065,172.089783 
	C32.159855,172.753677 30.670805,177.164185 32.151543,182.196732 
z"/>
<path fill="#D3D9DF" opacity="1.000000" stroke="none" 
	d="
M132.541962,363.883972 
	C134.643829,368.347412 136.288498,372.700012 137.984741,377.394379 
	C128.127731,377.736176 118.219131,377.736176 108.403725,377.736176 
	C108.157341,377.305634 107.874977,377.040375 107.868813,376.768799 
	C107.518242,361.340424 106.863922,363.972900 120.148140,363.755402 
	C124.125854,363.690247 128.105835,363.763306 132.541962,363.883972 
z"/>
<path fill="#D6D6D5" opacity="1.000000" stroke="none" 
	d="
M143.262238,383.376312 
	C146.750061,384.462646 150.131836,385.974396 153.747437,387.743683 
	C150.717422,388.343842 147.453568,388.686462 143.757996,389.035797 
	C143.269592,387.295593 143.212875,385.548645 143.262238,383.376312 
z"/>
<path fill="#040504" opacity="1.000000" stroke="none" 
	d="
M133.499725,157.477020 
	C124.746368,157.520004 116.456863,157.520004 107.714508,157.520004 
	C107.714508,206.177185 107.714508,254.424561 107.714508,303.148407 
	C104.132874,303.148407 101.006187,303.148407 97.424858,303.239838 
	C93.526176,303.331268 90.082146,303.331268 86.238129,303.331268 
	C86.238129,301.142487 86.238121,299.678833 86.238129,298.215179 
	C86.238327,241.395828 86.214149,184.576477 86.251801,127.757149 
	C86.265205,107.529564 97.779877,92.002251 116.205948,87.531281 
	C120.043777,86.600044 124.117897,86.292892 128.083588,86.289764 
	C214.062363,86.221977 300.041199,86.217453 386.020050,86.251244 
	C410.643250,86.260918 427.662384,102.692131 427.718048,126.868561 
	C427.850433,184.354095 427.762573,241.840164 427.752594,299.326019 
	C427.752380,300.454163 427.615570,301.582306 427.513733,303.154755 
	C424.156006,303.154755 421.028809,303.154755 417.448669,303.247955 
	C413.551575,303.341156 410.107361,303.341156 406.233093,303.341156 
	C406.233093,254.377151 406.233093,206.124786 406.233093,157.434036 
	C315.183899,157.434036 224.573730,157.434036 133.499725,157.477020 
M133.169739,107.872932 
	C130.023193,107.878258 126.866974,107.726723 123.732048,107.920151 
	C116.216286,108.383896 109.191551,114.346436 108.200829,121.711670 
	C107.594543,126.218903 108.088783,130.874161 108.088783,135.869400 
	C115.225998,135.869400 122.130814,135.869400 129.958679,136.013367 
	C221.896927,136.013367 313.835175,136.013367 406.838257,136.013367 
	C406.108826,129.683594 406.469269,123.618057 404.560852,118.378975 
	C401.606995,110.269829 394.554199,107.707092 386.055817,107.718658 
	C303.729004,107.830711 221.401962,107.784325 139.074982,107.798370 
	C137.416367,107.798653 135.757797,107.981865 133.169739,107.872932 
z"/>
<path fill="#040404" opacity="1.000000" stroke="none" 
	d="
M299.600159,389.454407 
	C299.489807,374.944366 299.489807,360.891418 299.489807,346.767365 
	C303.108154,345.775970 305.022095,340.751190 310.309998,342.106506 
	C314.414215,343.158417 317.870270,344.445129 319.947876,348.307556 
	C323.131592,354.226410 326.254456,360.180359 329.579498,366.018982 
	C330.296295,367.277618 331.762848,368.109253 332.884064,369.137573 
	C333.633514,367.699951 334.986176,366.280701 335.030609,364.821594 
	C335.252960,357.522003 335.132385,350.212006 335.132385,342.572998 
	C342.326233,342.572998 349.199890,342.572998 356.651733,342.572998 
	C356.651733,357.864471 356.651733,372.979523 356.779480,388.548340 
	C356.808655,397.480957 356.708801,405.959808 356.611938,414.438690 
	C356.537720,420.934692 352.974060,426.704285 348.365234,427.783112 
	C343.636871,428.889862 338.601349,425.879761 335.259216,419.889404 
	C330.769012,411.841187 326.309937,403.775604 321.153870,394.485779 
	C321.153870,406.293671 321.153870,416.683838 321.153870,427.415802 
	C313.949646,427.415802 307.079620,427.415802 299.710510,427.415802 
	C299.710510,414.808197 299.710510,402.359833 299.600159,389.454407 
z"/>
<path fill="#040404" opacity="1.000000" stroke="none" 
	d="
M370.731689,389.456390 
	C370.709076,376.985016 370.782623,364.973663 370.931549,352.124390 
	C370.937164,350.512939 370.867401,349.739410 370.797668,348.965881 
	C374.074280,344.016937 378.660065,342.013519 384.590088,342.176025 
	C392.190735,342.384338 399.830292,341.760712 407.398224,342.285889 
	C410.392303,342.493683 413.238922,344.825958 416.496521,346.322784 
	C424.829498,352.627289 428.088837,360.820587 427.819641,370.821777 
	C427.551208,380.794067 427.807220,390.779480 427.750092,400.758667 
	C427.656067,417.187653 417.320282,427.609650 401.010742,427.751617 
	C394.857208,427.805176 388.699829,427.877777 382.549530,427.725830 
	C374.939362,427.537872 370.941193,423.444244 370.866791,415.862793 
	C370.781921,407.214691 370.834808,398.565277 370.731689,389.456390 
M392.062988,381.501160 
	C392.062988,389.622925 392.062988,397.744659 392.062988,406.238312 
	C395.181610,406.238312 397.825226,406.072906 400.440308,406.275635 
	C404.761200,406.610596 406.418152,404.828247 406.301514,400.475800 
	C406.082825,392.316345 406.351624,384.145020 406.223114,375.981689 
	C406.018768,363.002502 409.028107,363.418640 392.936676,363.909149 
	C392.802429,363.913208 392.672577,364.061096 392.062988,364.434235 
	C392.062988,369.586212 392.062988,375.043945 392.062988,381.501160 
z"/>
<path fill="#040404" opacity="1.000000" stroke="none" 
	d="
M157.215622,388.452393 
	C157.186249,382.861664 157.663422,377.697021 157.326752,372.585968 
	C155.977158,352.097290 169.047836,339.480469 192.180542,342.526947 
	C205.208481,344.242645 213.902527,353.994171 214.212204,367.139862 
	C214.376587,374.117828 214.273331,381.102081 214.399872,388.540741 
	C214.404556,393.968231 214.395493,398.942627 214.176941,403.907867 
	C213.651505,415.845612 205.332748,425.380707 193.518478,427.140076 
	C189.132141,427.793304 184.547775,427.951874 180.142822,427.488708 
	C166.855637,426.091553 158.064026,416.399384 157.446335,402.843414 
	C157.234985,398.204803 157.370865,393.550323 157.215622,388.452393 
M180.973206,364.065704 
	C180.269226,365.779816 178.986694,367.483643 178.955994,369.209717 
	C178.769379,379.705048 179.080307,390.211426 178.785492,400.701721 
	C178.627350,406.328217 181.902115,406.297272 185.878220,406.284576 
	C189.830383,406.271942 193.231155,406.339996 193.060028,400.728363 
	C192.796005,392.070892 193.030899,383.399109 192.988037,374.733734 
	C192.934692,363.953125 194.809998,363.337799 180.973206,364.065704 
z"/>
<path fill="#030303" opacity="1.000000" stroke="none" 
	d="
M228.521271,389.459473 
	C228.469482,373.590881 228.469482,358.188263 228.469482,342.515442 
	C235.755905,342.515442 242.491684,342.515442 249.962433,342.515442 
	C249.962433,357.703552 249.962433,372.888733 249.961212,388.995972 
	C249.955582,393.713226 250.055573,397.512299 249.916885,401.302612 
	C249.783463,404.948395 251.478455,406.436646 254.990768,406.252686 
	C256.471863,406.175110 257.961426,406.198303 259.445129,406.243195 
	C262.837616,406.345764 264.187531,404.639038 264.072845,401.357147 
	C263.928986,397.239990 263.930939,393.117706 263.869965,388.997650 
	C263.869965,373.601593 263.869965,358.205536 263.869965,342.527191 
	C271.151276,342.527191 277.875549,342.527191 285.432678,342.527191 
	C285.432678,357.714630 285.432678,372.888672 285.481567,388.528107 
	C285.448517,394.137177 285.571136,399.293884 285.243439,404.421844 
	C284.481659,416.343140 276.087097,425.638153 264.189117,427.187775 
	C259.160034,427.842743 253.879959,427.764252 248.857727,427.032440 
	C237.989227,425.448822 229.687561,416.271759 228.845169,405.354584 
	C228.450134,400.234985 228.645340,395.069885 228.521271,389.459473 
z"/>
<path fill="#030303" opacity="1.000000" stroke="none" 
	d="
M170.927979,313.931061 
	C166.296127,313.931061 162.149033,313.931061 157.723419,313.931061 
	C157.599396,312.371185 157.408585,311.082306 157.407547,309.793304 
	C157.389389,287.132263 157.423065,264.471130 157.371078,241.810211 
	C157.360199,237.070328 158.213776,232.825790 162.583328,230.125595 
	C167.921646,226.826721 174.388489,228.712051 177.869003,234.797318 
	C182.718140,243.275452 187.372147,251.865204 192.876877,261.790497 
	C192.876877,249.829987 192.876877,239.344742 192.876877,228.747711 
	C200.206757,228.747711 206.965912,228.747711 214.006866,228.747711 
	C214.098663,230.037781 214.247314,231.158310 214.247971,232.278915 
	C214.261459,255.273209 214.277191,278.267548 214.246445,301.261780 
	C214.237198,308.186768 211.334793,312.391388 205.869446,313.686035 
	C201.065369,314.824036 196.549713,312.337677 193.403091,306.718414 
	C188.858994,298.603638 184.364990,290.460785 179.210663,281.179321 
	C179.210663,292.624786 179.210663,302.908417 179.210663,313.931061 
	C176.246536,313.931061 173.829636,313.931061 170.927979,313.931061 
z"/>
<path fill="#020202" opacity="1.000000" stroke="none" 
	d="
M279.135529,236.906860 
	C283.690826,242.222595 285.462921,248.114960 285.426056,254.690063 
	C285.364441,265.683533 285.167877,276.684479 285.479004,287.669495 
	C285.790527,298.668915 279.906372,305.944427 271.737946,311.894409 
	C270.050201,313.123749 267.488647,313.674561 265.339233,313.651703 
	C258.803619,313.582245 252.167282,313.691193 245.766495,312.589752 
	C237.756668,311.211426 229.443329,302.015961 229.169662,293.643860 
	C228.658951,278.020020 228.096512,262.269379 229.554260,246.759354 
	C230.388275,237.885712 237.828812,231.508911 246.805237,229.737122 
	C253.343430,228.446609 260.487518,228.598846 267.071930,229.755768 
	C271.287048,230.496353 274.975220,234.236237 279.135529,236.906860 
M249.937943,260.583191 
	C249.938370,269.548309 250.069946,278.516083 249.890335,287.477600 
	C249.781387,292.913544 253.363708,292.589020 256.949036,292.566742 
	C260.474152,292.544830 264.170105,293.047913 264.101288,287.573090 
	C263.963562,276.617462 264.148804,265.657318 263.956024,254.703339 
	C263.929260,253.183929 262.892517,250.899933 261.676147,250.314392 
	C255.173401,247.184204 249.946213,250.581924 249.938080,257.621796 
	C249.937317,258.285889 249.937958,258.949951 249.937943,260.583191 
z"/>
<path fill="#060606" opacity="1.000000" stroke="none" 
	d="
M312.954315,249.953217 
	C308.344421,249.953217 304.227509,249.953217 299.928802,249.953217 
	C299.928802,242.712891 299.928802,235.958328 299.928802,228.725601 
	C318.721222,228.725601 337.380859,228.725601 356.277161,228.725601 
	C356.277161,235.972061 356.277161,242.692551 356.277161,249.901794 
	C350.382812,249.901794 344.819977,249.901794 338.998840,249.901794 
	C338.998840,271.306946 338.998840,292.224182 338.998840,313.546692 
	C331.858826,313.546692 324.968292,313.546692 317.655121,313.546692 
	C317.655121,292.708710 317.655121,271.653046 317.655121,250.268311 
	C315.993225,250.143860 314.720276,250.048553 312.954315,249.953217 
z"/>
<path fill="#EFEFEF" opacity="1.000000" stroke="none" 
	d="
M263.414490,388.998352 
	C263.930939,393.117706 263.928986,397.239990 264.072845,401.357147 
	C264.187531,404.639038 262.837616,406.345764 259.445129,406.243195 
	C257.961426,406.198303 256.471863,406.175110 254.990768,406.252686 
	C251.478455,406.436646 249.783463,404.948395 249.916885,401.302612 
	C250.055573,397.512299 249.955582,393.713226 250.045013,389.457825 
	C254.406387,388.998138 258.682709,388.998566 263.414490,388.998352 
z"/>
<path fill="#D6D6D5" opacity="1.000000" stroke="none" 
	d="
M370.460022,348.952515 
	C370.867401,349.739410 370.937164,350.512939 370.890503,351.659485 
	C370.556854,351.001373 370.339600,349.970276 370.460022,348.952515 
z"/>
<path fill="#EFEFEF" opacity="1.000000" stroke="none" 
	d="
M32.071480,181.814575 
	C30.670805,177.164185 32.159855,172.753677 35.360065,172.089783 
	C39.437527,171.243866 42.032734,173.340317 43.384567,176.997955 
	C44.628120,180.362625 42.308239,184.344849 38.624950,185.576035 
	C35.287224,186.691711 33.228039,185.394409 32.071480,181.814575 
z"/>
<path fill="#2FDF84" opacity="1.000000" stroke="none" 
	d="
M134.099197,108.079727 
	C135.757797,107.981865 137.416367,107.798653 139.074982,107.798370 
	C221.401962,107.784325 303.729004,107.830711 386.055817,107.718658 
	C394.554199,107.707092 401.606995,110.269829 404.560852,118.378975 
	C406.469269,123.618057 406.108826,129.683594 406.838257,136.013367 
	C313.835175,136.013367 221.896927,136.013367 129.485352,135.483154 
	C128.300293,125.539474 129.300461,116.450066 134.099197,108.079727 
z"/>
<path fill="#00B770" opacity="1.000000" stroke="none" 
	d="
M133.634460,107.976334 
	C129.300461,116.450066 128.300293,125.539474 129.023834,135.411179 
	C122.130814,135.869400 115.225998,135.869400 108.088783,135.869400 
	C108.088783,130.874161 107.594543,126.218903 108.200829,121.711670 
	C109.191551,114.346436 116.216286,108.383896 123.732048,107.920151 
	C126.866974,107.726723 130.023193,107.878258 133.634460,107.976334 
z"/>
<path fill="#EFEFEF" opacity="1.000000" stroke="none" 
	d="
M392.062988,381.001434 
	C392.062988,375.043945 392.062988,369.586212 392.062988,364.434235 
	C392.672577,364.061096 392.802429,363.913208 392.936676,363.909149 
	C409.028107,363.418640 406.018768,363.002502 406.223114,375.981689 
	C406.351624,384.145020 406.082825,392.316345 406.301514,400.475800 
	C406.418152,404.828247 404.761200,406.610596 400.440308,406.275635 
	C397.825226,406.072906 395.181610,406.238312 392.062988,406.238312 
	C392.062988,397.744659 392.062988,389.622925 392.062988,381.001434 
z"/>
<path fill="#F0F0EF" opacity="1.000000" stroke="none" 
	d="
M181.423340,363.966675 
	C194.809998,363.337799 192.934692,363.953125 192.988037,374.733734 
	C193.030899,383.399109 192.796005,392.070892 193.060028,400.728363 
	C193.231155,406.339996 189.830383,406.271942 185.878220,406.284576 
	C181.902115,406.297272 178.627350,406.328217 178.785492,400.701721 
	C179.080307,390.211426 178.769379,379.705048 178.955994,369.209717 
	C178.986694,367.483643 180.269226,365.779816 181.423340,363.966675 
z"/>
<path fill="#F0F0EF" opacity="1.000000" stroke="none" 
	d="
M249.937943,260.098633 
	C249.937958,258.949951 249.937317,258.285889 249.938080,257.621796 
	C249.946213,250.581924 255.173401,247.184204 261.676147,250.314392 
	C262.892517,250.899933 263.929260,253.183929 263.956024,254.703339 
	C264.148804,265.657318 263.963562,276.617462 264.101288,287.573090 
	C264.170105,293.047913 260.474152,292.544830 256.949036,292.566742 
	C253.363708,292.589020 249.781387,292.913544 249.890335,287.477600 
	C250.069946,278.516083 249.938370,269.548309 249.937943,260.098633 
z"/>
</svg>